<svg height='200' width='200'  fill="#dddddd" xmlns="http://www.w3.org/2000/svg" xmlns:xlink="http://www.w3.org/1999/xlink" version="1.1" x="0px" y="0px" viewBox="0 0 110 110" enable-background="new 0 0 110 110" xml:space="preserve"><path d="M84.005,8.75c-5.979,0-10.84,4.86-10.84,10.83c0,3.029,1.25,5.779,3.269,7.749l-8.531,12.79  c-1.31-0.56-2.738-0.869-4.237-0.869c-3.5,0-6.62,1.67-8.59,4.26l-18.67-9.42c0.28-0.96,0.43-1.97,0.43-3.01  c0-5.97-4.86-10.83-10.83-10.83c-5.98,0-10.84,4.86-10.84,10.83c0,5.35,3.89,9.8,8.99,10.68l0.36,25.53  c-4.94,1-8.68,5.39-8.68,10.63c0,5.97,4.86,10.83,10.83,10.83c4.23,0,7.89-2.43,9.68-5.96l22.87,6.6  c-0.03,0.341-0.05,0.681-0.05,1.03c0,5.97,4.86,10.83,10.84,10.83c5.97,0,10.83-4.86,10.83-10.83c0-5.87-4.68-10.66-10.5-10.83  l-3.04-19.3c4.2-1.49,7.21-5.5,7.21-10.21c0-3.029-1.259-5.777-3.277-7.737l8.527-12.783l0,0c1.311,0.55,2.74,0.86,4.25,0.86  c5.97,0,10.83-4.86,10.83-10.84C94.835,13.61,89.975,8.75,84.005,8.75z M84.005,26.42c-3.77,0-6.84-3.07-6.84-6.84  c0-3.76,3.07-6.83,6.84-6.83c3.76,0,6.83,3.07,6.83,6.83C90.835,23.35,87.765,26.42,84.005,26.42z M63.665,56.92  c-3.771,0-6.83-3.07-6.83-6.84c0-3.76,3.06-6.83,6.83-6.83c3.77,0,6.84,3.07,6.84,6.83C70.505,53.85,67.435,56.92,63.665,56.92z   M26.005,24.25c3.76,0,6.83,3.07,6.83,6.83c0,3.77-3.07,6.84-6.83,6.84c-3.77,0-6.84-3.07-6.84-6.84  C19.165,27.32,22.235,24.25,26.005,24.25z M26.665,84.75c-3.76,0-6.83-3.07-6.83-6.83c0-3.77,3.07-6.84,6.83-6.84  c3.77,0,6.84,3.07,6.84,6.84C33.505,81.68,30.435,84.75,26.665,84.75z M37.455,78.95c0.03-0.34,0.05-0.681,0.05-1.03  c0-5.35-3.89-9.8-8.99-10.68l-0.36-25.53c2.61-0.53,4.88-2,6.44-4.05l18.67,9.42c-0.28,0.95-0.43,1.96-0.43,3  c0,5.87,4.68,10.66,10.5,10.83l3.04,19.3c-2.64,0.94-4.81,2.87-6.05,5.34L37.455,78.95z M70.005,97.25c-3.77,0-6.84-3.07-6.84-6.83  c0-3.77,3.07-6.84,6.84-6.84c3.76,0,6.83,3.07,6.83,6.84C76.835,94.18,73.765,97.25,70.005,97.25z"></path></svg>